<svg xmlns="http://www.w3.org/2000/svg" width="200" height="200" viewBox="0 0 200 200" fill="none">
  <rect width="200" height="200" rx="4" fill="#f8f9fa"/>
  <rect x="8" y="8" width="184" height="184" rx="2" stroke="#dadce0" stroke-width="1.5" stroke-dasharray="6 4" fill="none"/>
  <rect x="24" y="24" width="56" height="56" rx="2" fill="#e8eaed"/>
  <rect x="32" y="32" width="16" height="16" rx="1" fill="#bdc1c6"/>
  <rect x="56" y="32" width="16" height="16" rx="1" fill="#bdc1c6"/>
  <rect x="32" y="56" width="16" height="16" rx="1" fill="#bdc1c6"/>
  <rect x="120" y="24" width="56" height="56" rx="2" fill="#e8eaed"/>
  <rect x="128" y="32" width="16" height="16" rx="1" fill="#bdc1c6"/>
  <rect x="152" y="32" width="16" height="16" rx="1" fill="#bdc1c6"/>
  <rect x="128" y="56" width="16" height="16" rx="1" fill="#bdc1c6"/>
  <rect x="24" y="120" width="56" height="56" rx="2" fill="#e8eaed"/>
  <rect x="32" y="128" width="16" height="16" rx="1" fill="#bdc1c6"/>
  <rect x="56" y="128" width="16" height="16" rx="1" fill="#bdc1c6"/>
  <rect x="32" y="152" width="16" height="16" rx="1" fill="#bdc1c6"/>
  <rect x="88" y="88" width="8" height="8" rx="1" fill="#bdc1c6"/>
  <rect x="104" y="88" width="8" height="8" rx="1" fill="#bdc1c6"/>
  <rect x="120" y="88" width="8" height="8" rx="1" fill="#bdc1c6"/>
  <rect x="88" y="104" width="8" height="8" rx="1" fill="#bdc1c6"/>
  <rect x="120" y="104" width="8" height="8" rx="1" fill="#bdc1c6"/>
  <rect x="136" y="120" width="40" height="40" rx="2" fill="#9aa0a6"/>
  <text x="100" y="190" text-anchor="middle" fill="#80868b" font-family="Arial,sans-serif" font-size="11">Payment QR</text>
</svg>
